<svg width="315" height="60" viewBox="0 0 315 60" fill="none" xmlns="http://www.w3.org/2000/svg">
<rect width="315" height="60" rx="5" fill="white"/>
<path d="M26.732 31.333C27.326 31.333 27.8467 31.256 28.294 31.102C28.7487 30.948 29.1263 30.7317 29.427 30.453C29.735 30.167 29.966 29.8297 30.12 29.441C30.274 29.045 30.351 28.6087 30.351 28.132C30.351 27.1713 30.0503 26.416 29.449 25.866C28.855 25.316 27.9493 25.041 26.732 25.041H24.29V31.333H26.732ZM26.732 23.204C27.744 23.204 28.624 23.3213 29.372 23.556C30.12 23.7907 30.7397 24.1243 31.231 24.557C31.7223 24.9823 32.0853 25.4993 32.32 26.108C32.562 26.7167 32.683 27.3913 32.683 28.132C32.683 28.8727 32.5547 29.5547 32.298 30.178C32.0413 30.794 31.6637 31.3257 31.165 31.773C30.6663 32.2203 30.043 32.5687 29.295 32.818C28.5543 33.06 27.7 33.181 26.732 33.181H24.29V39H21.947V23.204H26.732ZM39.0317 27.648C39.8531 27.648 40.5937 27.7837 41.2537 28.055C41.9211 28.319 42.4857 28.704 42.9477 29.21C43.4171 29.7087 43.7764 30.3137 44.0257 31.025C44.2751 31.729 44.3997 32.521 44.3997 33.401C44.3997 34.281 44.2751 35.0767 44.0257 35.788C43.7764 36.4993 43.4171 37.1043 42.9477 37.603C42.4857 38.1017 41.9211 38.4867 41.2537 38.758C40.5937 39.022 39.8531 39.154 39.0317 39.154C38.2031 39.154 37.4551 39.022 36.7877 38.758C36.1277 38.4867 35.5631 38.1017 35.0937 37.603C34.6244 37.1043 34.2614 36.4993 34.0047 35.788C33.7554 35.0767 33.6307 34.281 33.6307 33.401C33.6307 32.521 33.7554 31.729 34.0047 31.025C34.2614 30.3137 34.6244 29.7087 35.0937 29.21C35.5631 28.704 36.1277 28.319 36.7877 28.055C37.4551 27.7837 38.2031 27.648 39.0317 27.648ZM39.0317 37.482C40.0877 37.482 40.8761 37.1263 41.3967 36.415C41.9174 35.7037 42.1777 34.7027 42.1777 33.412C42.1777 32.1213 41.9174 31.1203 41.3967 30.409C40.8761 29.6903 40.0877 29.331 39.0317 29.331C37.9611 29.331 37.1617 29.6903 36.6337 30.409C36.1131 31.1203 35.8527 32.1213 35.8527 33.412C35.8527 34.7027 36.1131 35.7037 36.6337 36.415C37.1617 37.1263 37.9611 37.482 39.0317 37.482ZM48.9391 22.764V32.257H49.4451C49.5991 32.257 49.7274 32.235 49.8301 32.191C49.9328 32.147 50.0391 32.059 50.1491 31.927L53.4931 28.242C53.5958 28.1027 53.7094 28 53.8341 27.934C53.9588 27.8607 54.1164 27.824 54.3071 27.824H56.2651L52.3161 32.147C52.1034 32.4183 51.8761 32.6273 51.6341 32.774C51.7734 32.8693 51.8944 32.9793 51.9971 33.104C52.1071 33.2287 52.2134 33.3643 52.3161 33.511L56.5181 39H54.5931C54.4171 39 54.2631 38.9707 54.1311 38.912C54.0064 38.8533 53.8928 38.747 53.7901 38.593L50.3361 34.105C50.2261 33.9363 50.1161 33.83 50.0061 33.786C49.8961 33.7347 49.7311 33.709 49.5111 33.709H48.9391V39H46.7941V22.764H48.9391ZM64.8963 32.169C64.8963 31.7437 64.834 31.3513 64.7093 30.992C64.592 30.6327 64.416 30.321 64.1813 30.057C63.9467 29.793 63.6607 29.5877 63.3233 29.441C62.986 29.2943 62.5973 29.221 62.1573 29.221C61.2553 29.221 60.544 29.4813 60.0233 30.002C59.51 30.5227 59.1837 31.245 59.0443 32.169H64.8963ZM66.6673 37.405C66.4033 37.713 66.099 37.9807 65.7543 38.208C65.4097 38.428 65.043 38.6077 64.6543 38.747C64.2657 38.8863 63.8623 38.989 63.4443 39.055C63.0337 39.121 62.6267 39.154 62.2233 39.154C61.4533 39.154 60.7383 39.0257 60.0783 38.769C59.4257 38.505 58.8573 38.1237 58.3733 37.625C57.8967 37.119 57.5227 36.4957 57.2513 35.755C56.9873 35.007 56.8553 34.149 56.8553 33.181C56.8553 32.4037 56.9763 31.6813 57.2183 31.014C57.4603 30.3393 57.805 29.7527 58.2523 29.254C58.707 28.7553 59.2607 28.363 59.9133 28.077C60.566 27.791 61.2993 27.648 62.1133 27.648C62.7953 27.648 63.4223 27.7617 63.9943 27.989C64.5737 28.209 65.0723 28.5317 65.4903 28.957C65.9083 29.3823 66.2347 29.9067 66.4693 30.53C66.7113 31.1533 66.8323 31.8647 66.8323 32.664C66.8323 32.994 66.7957 33.2177 66.7223 33.335C66.649 33.445 66.5133 33.5 66.3153 33.5H58.9893C59.0113 34.1673 59.1067 34.7503 59.2753 35.249C59.444 35.7403 59.675 36.151 59.9683 36.481C60.269 36.811 60.6247 37.0567 61.0353 37.218C61.446 37.3793 61.9043 37.46 62.4103 37.46C62.887 37.46 63.2977 37.405 63.6423 37.295C63.9943 37.185 64.295 37.0677 64.5443 36.943C64.801 36.811 65.0137 36.69 65.1823 36.58C65.3583 36.47 65.5123 36.415 65.6443 36.415C65.8203 36.415 65.956 36.481 66.0513 36.613L66.6673 37.405ZM65.5123 23.028L62.9053 25.866C62.7953 25.9907 62.689 26.0787 62.5863 26.13C62.4837 26.174 62.348 26.196 62.1793 26.196H60.8813L62.5093 23.534C62.612 23.3653 62.722 23.2407 62.8393 23.16C62.964 23.072 63.1547 23.028 63.4113 23.028H65.5123ZM69.1379 39V27.824H70.4249C70.7255 27.824 70.9125 27.967 70.9859 28.253L71.1399 29.32C71.5505 28.8287 72.0052 28.429 72.5039 28.121C73.0099 27.8057 73.6002 27.648 74.2749 27.648C75.0155 27.648 75.6169 27.8533 76.0789 28.264C76.5409 28.6673 76.8782 29.2173 77.0909 29.914C77.2522 29.518 77.4612 29.177 77.7179 28.891C77.9745 28.605 78.2605 28.3703 78.5759 28.187C78.8912 28.0037 79.2249 27.868 79.5769 27.78C79.9362 27.692 80.2992 27.648 80.6659 27.648C81.2599 27.648 81.7879 27.7433 82.2499 27.934C82.7192 28.1173 83.1152 28.3887 83.4379 28.748C83.7605 29.1073 84.0062 29.551 84.1749 30.079C84.3435 30.607 84.4279 31.2083 84.4279 31.883V39H82.2719V31.883C82.2719 31.047 82.0885 30.4163 81.7219 29.991C81.3625 29.5657 80.8345 29.353 80.1379 29.353C79.8299 29.353 79.5365 29.408 79.2579 29.518C78.9792 29.6207 78.7335 29.7783 78.5209 29.991C78.3155 30.2037 78.1505 30.4677 78.0259 30.783C77.9085 31.0983 77.8499 31.465 77.8499 31.883V39H75.6939V31.883C75.6939 31.0177 75.5215 30.3797 75.1769 29.969C74.8322 29.5583 74.3262 29.353 73.6589 29.353C73.1969 29.353 72.7679 29.474 72.3719 29.716C71.9759 29.958 71.6129 30.288 71.2829 30.706V39H69.1379ZM92.0766 27.648C92.898 27.648 93.6386 27.7837 94.2986 28.055C94.966 28.319 95.5306 28.704 95.9926 29.21C96.462 29.7087 96.8213 30.3137 97.0706 31.025C97.32 31.729 97.4446 32.521 97.4446 33.401C97.4446 34.281 97.32 35.0767 97.0706 35.788C96.8213 36.4993 96.462 37.1043 95.9926 37.603C95.5306 38.1017 94.966 38.4867 94.2986 38.758C93.6386 39.022 92.898 39.154 92.0766 39.154C91.248 39.154 90.5 39.022 89.8326 38.758C89.1726 38.4867 88.608 38.1017 88.1386 37.603C87.6693 37.1043 87.3063 36.4993 87.0496 35.788C86.8003 35.0767 86.6756 34.281 86.6756 33.401C86.6756 32.521 86.8003 31.729 87.0496 31.025C87.3063 30.3137 87.6693 29.7087 88.1386 29.21C88.608 28.704 89.1726 28.319 89.8326 28.055C90.5 27.7837 91.248 27.648 92.0766 27.648ZM92.0766 37.482C93.1326 37.482 93.921 37.1263 94.4416 36.415C94.9623 35.7037 95.2226 34.7027 95.2226 33.412C95.2226 32.1213 94.9623 31.1203 94.4416 30.409C93.921 29.6903 93.1326 29.331 92.0766 29.331C91.006 29.331 90.2066 29.6903 89.6786 30.409C89.158 31.1203 88.8976 32.1213 88.8976 33.412C88.8976 34.7027 89.158 35.7037 89.6786 36.415C90.2066 37.1263 91.006 37.482 92.0766 37.482ZM101.852 29.375C102.094 29.1183 102.347 28.8837 102.611 28.671C102.875 28.4583 103.154 28.2787 103.447 28.132C103.748 27.978 104.067 27.8607 104.404 27.78C104.749 27.692 105.115 27.648 105.504 27.648C106.12 27.648 106.659 27.7507 107.121 27.956C107.59 28.1613 107.983 28.451 108.298 28.825C108.613 29.1917 108.852 29.6353 109.013 30.156C109.174 30.6767 109.255 31.2523 109.255 31.883V39H107.099V31.883C107.099 31.0837 106.916 30.464 106.549 30.024C106.182 29.5767 105.621 29.353 104.866 29.353C104.316 29.353 103.799 29.485 103.315 29.749C102.838 30.0057 102.395 30.3577 101.984 30.805V39H99.839V27.824H101.126C101.427 27.824 101.614 27.967 101.687 28.253L101.852 29.375ZM124.16 29.375H121.553L120.882 32.807H123.478L124.16 29.375ZM128.461 27.791L128.296 28.704C128.259 28.9313 128.168 29.1 128.021 29.21C127.874 29.32 127.647 29.375 127.339 29.375H125.931L125.249 32.807H127.119C127.346 32.807 127.508 32.8767 127.603 33.016C127.706 33.148 127.731 33.3753 127.68 33.698L127.581 34.391H125.018L124.116 39H123.148C123.045 39 122.946 38.978 122.851 38.934C122.763 38.8827 122.69 38.8167 122.631 38.736C122.572 38.648 122.528 38.549 122.499 38.439C122.477 38.329 122.481 38.208 122.51 38.076L123.247 34.391H120.651L119.914 38.186C119.855 38.4793 119.734 38.6883 119.551 38.813C119.368 38.9377 119.159 39 118.924 39H117.978L118.88 34.391H117.362C117.142 34.391 116.981 34.325 116.878 34.193C116.775 34.061 116.75 33.83 116.801 33.5L116.9 32.807H119.111L119.782 29.375H117.285L117.439 28.473C117.476 28.2383 117.567 28.066 117.714 27.956C117.861 27.846 118.088 27.791 118.396 27.791H120.013L120.772 23.963C120.816 23.7283 120.926 23.545 121.102 23.413C121.278 23.2737 121.483 23.204 121.718 23.204H122.686L121.784 27.791H124.391L125.282 23.204H126.239C126.474 23.204 126.657 23.2773 126.789 23.424C126.921 23.5707 126.965 23.7613 126.921 23.996L126.162 27.791H128.461ZM140.211 37.361V39H131.675V37.361H135.019V27.01C135.019 26.68 135.03 26.339 135.052 25.987L132.368 28.264C132.265 28.3447 132.162 28.396 132.06 28.418C131.957 28.44 131.858 28.4437 131.763 28.429C131.675 28.4143 131.594 28.385 131.521 28.341C131.455 28.2897 131.4 28.2383 131.356 28.187L130.685 27.252L135.415 23.171H137.164V37.361H140.211Z" fill="#353535"/>
<circle cx="283" cy="30" r="22" fill="#F5F5F5"/>
<path d="M281.605 17.9044L278.432 24.627L271.332 25.7086C270.058 25.9015 269.548 27.5415 270.471 28.4809L275.608 33.7107L274.393 41.0984C274.175 42.4338 275.521 43.4341 276.648 42.8096L283 39.3213L289.352 42.8096C290.479 43.429 291.825 42.4338 291.607 41.0984L290.392 33.7107L295.529 28.4809C296.452 27.5415 295.942 25.9015 294.668 25.7086L287.568 24.627L284.395 17.9044C283.826 16.7061 282.179 16.6909 281.605 17.9044Z" fill="#BFBFBF"/>
</svg>
