<svg width="335" height="70" viewBox="0 0 335 70" fill="none" xmlns="http://www.w3.org/2000/svg">
<g filter="url(#filter0_d_12_64)">
<rect x="10" y="8" width="315" height="50" rx="5" fill="white"/>
<path d="M59.048 27.8C60.4987 27.8 61.64 28.1467 62.472 28.84C63.304 29.5333 63.72 30.488 63.72 31.704C63.72 32.92 63.304 33.8747 62.472 34.568C61.64 35.2613 60.4987 35.608 59.048 35.608H56.28V39H54.68V27.8H59.048ZM59 34.216C60.0133 34.216 60.7867 34.0027 61.32 33.576C61.8533 33.1387 62.12 32.5147 62.12 31.704C62.12 30.8933 61.8533 30.2747 61.32 29.848C60.7867 29.4107 60.0133 29.192 59 29.192H56.28V34.216H59ZM65.706 30.52H67.242V39H65.706V30.52ZM66.474 28.888C66.1753 28.888 65.9247 28.792 65.722 28.6C65.53 28.408 65.434 28.1733 65.434 27.896C65.434 27.6187 65.53 27.384 65.722 27.192C65.9247 26.9893 66.1753 26.888 66.474 26.888C66.7727 26.888 67.018 26.984 67.21 27.176C67.4127 27.3573 67.514 27.5867 67.514 27.864C67.514 28.152 67.4127 28.3973 67.21 28.6C67.018 28.792 66.7727 28.888 66.474 28.888ZM73.8708 39.096C73.0068 39.096 72.2334 38.9093 71.5508 38.536C70.8788 38.1627 70.3508 37.6507 69.9668 37C69.5828 36.3387 69.3908 35.592 69.3908 34.76C69.3908 33.928 69.5828 33.1867 69.9668 32.536C70.3508 31.8747 70.8788 31.3627 71.5508 31C72.2334 30.6267 73.0068 30.44 73.8708 30.44C74.6388 30.44 75.3214 30.5947 75.9188 30.904C76.5268 31.2133 76.9961 31.6613 77.3268 32.248L76.1588 33C75.8921 32.5947 75.5614 32.2907 75.1668 32.088C74.7721 31.8853 74.3348 31.784 73.8548 31.784C73.3001 31.784 72.7988 31.9067 72.3508 32.152C71.9134 32.3973 71.5668 32.7493 71.3108 33.208C71.0654 33.656 70.9428 34.1733 70.9428 34.76C70.9428 35.3573 71.0654 35.8853 71.3108 36.344C71.5668 36.792 71.9134 37.1387 72.3508 37.384C72.7988 37.6293 73.3001 37.752 73.8548 37.752C74.3348 37.752 74.7721 37.6507 75.1668 37.448C75.5614 37.2453 75.8921 36.9413 76.1588 36.536L77.3268 37.272C76.9961 37.8587 76.5268 38.312 75.9188 38.632C75.3214 38.9413 74.6388 39.096 73.8708 39.096ZM82.8224 39.096C81.9797 39.096 81.2224 38.9093 80.5504 38.536C79.8784 38.1627 79.3504 37.6507 78.9664 37C78.593 36.3387 78.4064 35.592 78.4064 34.76C78.4064 33.928 78.593 33.1867 78.9664 32.536C79.3504 31.8747 79.8784 31.3627 80.5504 31C81.2224 30.6267 81.9797 30.44 82.8224 30.44C83.665 30.44 84.417 30.6267 85.0784 31C85.7504 31.3627 86.273 31.8747 86.6464 32.536C87.0304 33.1867 87.2224 33.928 87.2224 34.76C87.2224 35.592 87.0304 36.3387 86.6464 37C86.273 37.6507 85.7504 38.1627 85.0784 38.536C84.417 38.9093 83.665 39.096 82.8224 39.096ZM82.8224 37.752C83.3664 37.752 83.8517 37.6293 84.2784 37.384C84.7157 37.128 85.057 36.776 85.3024 36.328C85.5477 35.8693 85.6704 35.3467 85.6704 34.76C85.6704 34.1733 85.5477 33.656 85.3024 33.208C85.057 32.7493 84.7157 32.3973 84.2784 32.152C83.8517 31.9067 83.3664 31.784 82.8224 31.784C82.2784 31.784 81.7877 31.9067 81.3504 32.152C80.9237 32.3973 80.5824 32.7493 80.3264 33.208C80.081 33.656 79.9584 34.1733 79.9584 34.76C79.9584 35.3467 80.081 35.8693 80.3264 36.328C80.5824 36.776 80.9237 37.128 81.3504 37.384C81.7877 37.6293 82.2784 37.752 82.8224 37.752Z" fill="#353535"/>
<path d="M42.7552 39.5622L39.2499 36.0574C39.0917 35.8992 38.8772 35.8113 38.6522 35.8113H38.0791C39.0495 34.5705 39.6261 33.0097 39.6261 31.3118C39.6261 27.2727 36.3528 24 32.313 24C28.2733 24 25 27.2727 25 31.3118C25 35.3508 28.2733 38.6236 32.313 38.6236C34.0112 38.6236 35.5723 38.0471 36.8134 37.0768V37.6498C36.8134 37.8748 36.9013 38.0892 37.0595 38.2474L40.5648 41.7522C40.8953 42.0826 41.4297 42.0826 41.7567 41.7522L42.7517 40.7573C43.0822 40.4269 43.0822 39.8926 42.7552 39.5622ZM32.313 35.8113C29.8273 35.8113 27.8127 33.8006 27.8127 31.3118C27.8127 28.8265 29.8238 26.8122 32.313 26.8122C34.7988 26.8122 36.8134 28.823 36.8134 31.3118C36.8134 33.7971 34.8023 35.8113 32.313 35.8113Z" fill="#BFBFBF"/>
</g>
<defs>
<filter id="filter0_d_12_64" x="0" y="0" width="335" height="70" filterUnits="userSpaceOnUse" color-interpolation-filters="sRGB">
<feFlood flood-opacity="0" result="BackgroundImageFix"/>
<feColorMatrix in="SourceAlpha" type="matrix" values="0 0 0 0 0 0 0 0 0 0 0 0 0 0 0 0 0 0 127 0" result="hardAlpha"/>
<feOffset dy="2"/>
<feGaussianBlur stdDeviation="5"/>
<feColorMatrix type="matrix" values="0 0 0 0 0 0 0 0 0 0 0 0 0 0 0 0 0 0 0.04 0"/>
<feBlend mode="normal" in2="BackgroundImageFix" result="effect1_dropShadow_12_64"/>
<feBlend mode="normal" in="SourceGraphic" in2="effect1_dropShadow_12_64" result="shape"/>
</filter>
</defs>
</svg>
