<svg width="590" height="70" viewBox="0 0 590 70" fill="none" xmlns="http://www.w3.org/2000/svg">
<g filter="url(#filter0_d_13_89)">
<rect x="10" y="8" width="570" height="50" rx="5" fill="white"/>
<path d="M57.944 39.128C57.1013 39.128 56.2853 39 55.496 38.744C54.7173 38.4773 54.104 38.136 53.656 37.72L54.248 36.472C54.6747 36.856 55.2187 37.1707 55.88 37.416C56.552 37.6507 57.24 37.768 57.944 37.768C58.872 37.768 59.5653 37.6133 60.024 37.304C60.4827 36.984 60.712 36.5627 60.712 36.04C60.712 35.656 60.584 35.3467 60.328 35.112C60.0827 34.8667 59.7733 34.68 59.4 34.552C59.0373 34.424 58.52 34.28 57.848 34.12C57.0053 33.9173 56.3227 33.7147 55.8 33.512C55.288 33.3093 54.8453 33 54.472 32.584C54.1093 32.1573 53.928 31.5867 53.928 30.872C53.928 30.2747 54.0827 29.736 54.392 29.256C54.712 28.776 55.192 28.392 55.832 28.104C56.472 27.816 57.2667 27.672 58.216 27.672C58.8773 27.672 59.528 27.7573 60.168 27.928C60.808 28.0987 61.3573 28.344 61.816 28.664L61.288 29.944C60.8187 29.6453 60.3173 29.4213 59.784 29.272C59.2507 29.112 58.728 29.032 58.216 29.032C57.3093 29.032 56.6267 29.1973 56.168 29.528C55.72 29.8587 55.496 30.2853 55.496 30.808C55.496 31.192 55.624 31.5067 55.88 31.752C56.136 31.9867 56.4507 32.1733 56.824 32.312C57.208 32.44 57.7253 32.5787 58.376 32.728C59.2187 32.9307 59.896 33.1333 60.408 33.336C60.92 33.5387 61.3573 33.848 61.72 34.264C62.0933 34.68 62.28 35.24 62.28 35.944C62.28 36.5307 62.12 37.0693 61.8 37.56C61.48 38.04 60.9947 38.424 60.344 38.712C59.6933 38.9893 58.8933 39.128 57.944 39.128ZM72.0575 34.808C72.0575 34.9253 72.0468 35.08 72.0255 35.272H65.1455C65.2415 36.0187 65.5668 36.6213 66.1215 37.08C66.6868 37.528 67.3855 37.752 68.2175 37.752C69.2308 37.752 70.0468 37.4107 70.6655 36.728L71.5135 37.72C71.1295 38.168 70.6495 38.5093 70.0735 38.744C69.5082 38.9787 68.8735 39.096 68.1695 39.096C67.2735 39.096 66.4788 38.9147 65.7855 38.552C65.0922 38.1787 64.5535 37.6613 64.1695 37C63.7962 36.3387 63.6095 35.592 63.6095 34.76C63.6095 33.9387 63.7908 33.1973 64.1535 32.536C64.5268 31.8747 65.0335 31.3627 65.6735 31C66.3242 30.6267 67.0548 30.44 67.8655 30.44C68.6762 30.44 69.3962 30.6267 70.0255 31C70.6655 31.3627 71.1615 31.8747 71.5135 32.536C71.8762 33.1973 72.0575 33.9547 72.0575 34.808ZM67.8655 31.736C67.1295 31.736 66.5108 31.96 66.0095 32.408C65.5188 32.856 65.2308 33.4427 65.1455 34.168H70.5855C70.5002 33.4533 70.2068 32.872 69.7055 32.424C69.2148 31.9653 68.6015 31.736 67.8655 31.736ZM77.044 30.44C78.2173 30.44 79.1133 30.728 79.732 31.304C80.3613 31.88 80.676 32.7387 80.676 33.88V39H79.22V37.88C78.964 38.2747 78.596 38.5787 78.116 38.792C77.6467 38.9947 77.0867 39.096 76.436 39.096C75.4867 39.096 74.724 38.8667 74.148 38.408C73.5827 37.9493 73.3 37.3467 73.3 36.6C73.3 35.8533 73.572 35.256 74.116 34.808C74.66 34.3493 75.524 34.12 76.708 34.12H79.14V33.816C79.14 33.1547 78.948 32.648 78.564 32.296C78.18 31.944 77.6147 31.768 76.868 31.768C76.3667 31.768 75.876 31.8533 75.396 32.024C74.916 32.184 74.5107 32.4027 74.18 32.68L73.54 31.528C73.9773 31.176 74.5 30.9093 75.108 30.728C75.716 30.536 76.3613 30.44 77.044 30.44ZM76.692 37.912C77.2787 37.912 77.7853 37.784 78.212 37.528C78.6387 37.2613 78.948 36.888 79.14 36.408V35.224H76.772C75.4707 35.224 74.82 35.6613 74.82 36.536C74.82 36.9627 74.9853 37.2987 75.316 37.544C75.6467 37.7893 76.1053 37.912 76.692 37.912ZM84.9905 31.944C85.2572 31.4533 85.6518 31.08 86.1745 30.824C86.6972 30.568 87.3318 30.44 88.0785 30.44V31.928C87.9932 31.9173 87.8758 31.912 87.7265 31.912C86.8945 31.912 86.2385 32.1627 85.7585 32.664C85.2892 33.1547 85.0545 33.8587 85.0545 34.776V39H83.5185V30.52H84.9905V31.944ZM93.5895 39.096C92.7255 39.096 91.9522 38.9093 91.2695 38.536C90.5975 38.1627 90.0695 37.6507 89.6855 37C89.3015 36.3387 89.1095 35.592 89.1095 34.76C89.1095 33.928 89.3015 33.1867 89.6855 32.536C90.0695 31.8747 90.5975 31.3627 91.2695 31C91.9522 30.6267 92.7255 30.44 93.5895 30.44C94.3575 30.44 95.0402 30.5947 95.6375 30.904C96.2455 31.2133 96.7148 31.6613 97.0455 32.248L95.8775 33C95.6108 32.5947 95.2802 32.2907 94.8855 32.088C94.4908 31.8853 94.0535 31.784 93.5735 31.784C93.0188 31.784 92.5175 31.9067 92.0695 32.152C91.6322 32.3973 91.2855 32.7493 91.0295 33.208C90.7842 33.656 90.6615 34.1733 90.6615 34.76C90.6615 35.3573 90.7842 35.8853 91.0295 36.344C91.2855 36.792 91.6322 37.1387 92.0695 37.384C92.5175 37.6293 93.0188 37.752 93.5735 37.752C94.0535 37.752 94.4908 37.6507 94.8855 37.448C95.2802 37.2453 95.6108 36.9413 95.8775 36.536L97.0455 37.272C96.7148 37.8587 96.2455 38.312 95.6375 38.632C95.0402 38.9413 94.3575 39.096 93.5895 39.096ZM103.453 30.44C104.53 30.44 105.383 30.7547 106.013 31.384C106.653 32.0027 106.973 32.9147 106.973 34.12V39H105.437V34.296C105.437 33.4747 105.239 32.856 104.845 32.44C104.45 32.024 103.885 31.816 103.149 31.816C102.317 31.816 101.661 32.0613 101.181 32.552C100.701 33.032 100.461 33.7253 100.461 34.632V39H98.9248V27.128H100.461V31.72C100.781 31.3147 101.197 31 101.709 30.776C102.231 30.552 102.813 30.44 103.453 30.44Z" fill="#BFBFBF"/>
<path d="M42.7552 39.5622L39.2499 36.0574C39.0917 35.8992 38.8772 35.8113 38.6522 35.8113H38.0791C39.0495 34.5705 39.6261 33.0097 39.6261 31.3118C39.6261 27.2727 36.3528 24 32.313 24C28.2733 24 25 27.2727 25 31.3118C25 35.3508 28.2733 38.6236 32.313 38.6236C34.0112 38.6236 35.5723 38.0471 36.8134 37.0768V37.6498C36.8134 37.8748 36.9013 38.0892 37.0595 38.2474L40.5648 41.7522C40.8953 42.0826 41.4297 42.0826 41.7567 41.7522L42.7517 40.7573C43.0822 40.4269 43.0822 39.8926 42.7552 39.5622ZM32.313 35.8113C29.8273 35.8113 27.8127 33.8006 27.8127 31.3118C27.8127 28.8265 29.8238 26.8122 32.313 26.8122C34.7988 26.8122 36.8134 28.823 36.8134 31.3118C36.8134 33.7971 34.8023 35.8113 32.313 35.8113Z" fill="#BFBFBF"/>
</g>
<defs>
<filter id="filter0_d_13_89" x="0" y="0" width="590" height="70" filterUnits="userSpaceOnUse" color-interpolation-filters="sRGB">
<feFlood flood-opacity="0" result="BackgroundImageFix"/>
<feColorMatrix in="SourceAlpha" type="matrix" values="0 0 0 0 0 0 0 0 0 0 0 0 0 0 0 0 0 0 127 0" result="hardAlpha"/>
<feOffset dy="2"/>
<feGaussianBlur stdDeviation="5"/>
<feColorMatrix type="matrix" values="0 0 0 0 0 0 0 0 0 0 0 0 0 0 0 0 0 0 0.04 0"/>
<feBlend mode="normal" in2="BackgroundImageFix" result="effect1_dropShadow_13_89"/>
<feBlend mode="normal" in="SourceGraphic" in2="effect1_dropShadow_13_89" result="shape"/>
</filter>
</defs>
</svg>
